H nea tainia tis Disney/Pixar.

English Plot:
Set in Scotland in a rugged and mythical time, "Brave" features Merida, an aspiring archer and impetuous daughter of royalty. Merida makes a reckless choice that unleashes unintended peril and forces her to spring into action to set things right.

Greek (Hellenic) Plot:
Sta Xailants tis Skwtias, i Merinta, kori tou Vasilia Fergkous kai tis Vasilisas Elinor, me talento stin toksovolia einai apofasismeni na xaraksei to diko tis monopati sti zwi. I Merinta apsifa ena arxaio ethimo, iero stous arxontes twn Xailants. Oi prakseis tis Merinta prokaloyn xaos kai orgi sto vasileio kai otan strefetai se mia ekkentriki magissa gia na zitisei voitheia, i magissa tis leei na kanei mia efxi i opoia metatrepetai se katara kai peftei panw stin oikogeneia tis. I Merinta tote tha anakalypsei to pragmatiko noima tis gennaiotitas stin prospatheia tis na antistrepsei tin katara prin na einai poly arga.


Technical Details:

General
Complete name                    : Brave (2012) 720p BluRay (Greek - Hellenic Audio) - YIFY.mp4
Format                           : MPEG-4
Format profile                   : Base Media
Codec ID                         : isom
File size                        : 672 MiB
Duration                         : 1h 33mn
Overall bit rate                 : 1 003 Kbps
Writing application              : My MP4Box GUI 0.5.6.0

Video
ID                               : 1
Format                           : AVC
Format/Info                      : Advanced Video Codec
Format profile                   : High@L4.0
Format settings, CABAC           : Yes
Format settings, ReFrames        : 5 frames
Codec ID                         : avc1
Codec ID/Info                    : Advanced Video Coding
Duration                         : 1h 33mn
Bit rate mode                    : Variable
Bit rate                         : 801 Kbps
Maximum bit rate                 : 6 090 Kbps
Width                            : 1 280 pixels
Height                           : 536 pixels
Display aspect ratio             : 2.35:1
Frame rate mode                  : Constant
Frame rate                       : 23.976 fps
Color space                      : YUV
Chroma subsampling               : 4:2:0
Bit depth                        : 8 bits
Scan type                        : Progressive
Bits/(Pixel*Frame)               : 0.049
Stream size                      : 536 MiB (80%)
Writing library                  : x264 core 125 r2200 999b753

Audio
ID                               : 2
Format                           : AAC
Format/Info                      : Advanced Audio Codec
Format profile                   : LC
Codec ID                         : 40
Duration                         : 1h 33mn
Bit rate mode                    : Variable
Bit rate                         : 199 Kbps
Maximum bit rate                 : 261 Kbps
Channel(s)                       : 2 channels
Channel positions                : Front: L R
Sampling rate                    : 44.1 KHz
Compression mode                 : Lossy
Stream size                      : 133 MiB (20%)


Proteinomenos player: VLC Media player


Screens: 
http://i.imgur.com/mC6qu.png 
http://i.imgur.com/CFcJw.jpg 
http://i.imgur.com/An7Tl.jpg 
http://i.imgur.com/EZ5Sf.jpg


Sources:
Video: BRRip (YIFY: https://thepiratebay.se/torrent/7784965/)
Audio: BRRip (SuperNova Team)


THE PIRATE BAY HELLAS